<mxfile host="app.diagrams.net" agent="Mozilla/5.0 (Windows NT 10.0; Win64; x64) AppleWebKit/537.36 (KHTML, like Gecko) Chrome/131.0.0.0 Safari/537.36 Edg/131.0.0.0" version="24.9.1">
  <diagram name="Page-1" id="I9LUvMgAcvgNKsG8tAZl">
    <mxGraphModel dx="2076" dy="1765" grid="1" gridSize="10" guides="1" tooltips="1" connect="1" arrows="1" fold="1" page="1" pageScale="1" pageWidth="850" pageHeight="1100" math="0" shadow="0">
      <root>
        <mxCell id="0" />
        <mxCell id="1" parent="0" />
        <mxCell id="Lyd3PCLGdRSneMpUx6iW-1" value="" style="edgeStyle=orthogonalEdgeStyle;rounded=0;orthogonalLoop=1;jettySize=auto;html=1;" edge="1" parent="1" source="Lyd3PCLGdRSneMpUx6iW-2">
          <mxGeometry relative="1" as="geometry">
            <mxPoint x="-495.34" y="-1020" as="targetPoint" />
          </mxGeometry>
        </mxCell>
        <mxCell id="Lyd3PCLGdRSneMpUx6iW-2" value="&lt;font data-font-src=&quot;https://fonts.googleapis.com/css?family=Sarabun&quot; face=&quot;Sarabun&quot;&gt;Start&lt;/font&gt;" style="ellipse;whiteSpace=wrap;html=1;" vertex="1" parent="1">
          <mxGeometry x="-560.3400000000001" y="-1080" width="130" height="30" as="geometry" />
        </mxCell>
        <mxCell id="Lyd3PCLGdRSneMpUx6iW-3" value="" style="edgeStyle=orthogonalEdgeStyle;rounded=0;orthogonalLoop=1;jettySize=auto;html=1;" edge="1" parent="1" source="Lyd3PCLGdRSneMpUx6iW-4" target="Lyd3PCLGdRSneMpUx6iW-6">
          <mxGeometry relative="1" as="geometry" />
        </mxCell>
        <mxCell id="Lyd3PCLGdRSneMpUx6iW-4" value="กำหนดตัวแปร Input" style="rounded=0;whiteSpace=wrap;html=1;" vertex="1" parent="1">
          <mxGeometry x="-560.3400000000001" y="-880" width="130" height="40" as="geometry" />
        </mxCell>
        <mxCell id="Lyd3PCLGdRSneMpUx6iW-5" value="" style="edgeStyle=orthogonalEdgeStyle;rounded=0;orthogonalLoop=1;jettySize=auto;html=1;" edge="1" parent="1" source="Lyd3PCLGdRSneMpUx6iW-6">
          <mxGeometry relative="1" as="geometry">
            <mxPoint x="-495.34" y="-740" as="targetPoint" />
          </mxGeometry>
        </mxCell>
        <mxCell id="Lyd3PCLGdRSneMpUx6iW-6" value="กรอกค่า Input" style="shape=parallelogram;perimeter=parallelogramPerimeter;whiteSpace=wrap;html=1;fixedSize=1;" vertex="1" parent="1">
          <mxGeometry x="-560.3400000000001" y="-810" width="130" height="40" as="geometry" />
        </mxCell>
        <mxCell id="Lyd3PCLGdRSneMpUx6iW-7" value="" style="edgeStyle=orthogonalEdgeStyle;rounded=0;orthogonalLoop=1;jettySize=auto;html=1;" edge="1" parent="1" source="Lyd3PCLGdRSneMpUx6iW-8" target="Lyd3PCLGdRSneMpUx6iW-4">
          <mxGeometry relative="1" as="geometry" />
        </mxCell>
        <mxCell id="Lyd3PCLGdRSneMpUx6iW-8" value="กำหนดตัวแปร cal = 9" style="rounded=0;whiteSpace=wrap;html=1;" vertex="1" parent="1">
          <mxGeometry x="-560.3400000000001" y="-950" width="130" height="40" as="geometry" />
        </mxCell>
        <mxCell id="Lyd3PCLGdRSneMpUx6iW-9" value="" style="edgeStyle=orthogonalEdgeStyle;rounded=0;orthogonalLoop=1;jettySize=auto;html=1;" edge="1" parent="1" source="Lyd3PCLGdRSneMpUx6iW-11" target="Lyd3PCLGdRSneMpUx6iW-8">
          <mxGeometry relative="1" as="geometry" />
        </mxCell>
        <mxCell id="Lyd3PCLGdRSneMpUx6iW-10" value="" style="edgeStyle=orthogonalEdgeStyle;rounded=0;orthogonalLoop=1;jettySize=auto;html=1;" edge="1" parent="1" source="Lyd3PCLGdRSneMpUx6iW-11" target="Lyd3PCLGdRSneMpUx6iW-2">
          <mxGeometry relative="1" as="geometry" />
        </mxCell>
        <mxCell id="Lyd3PCLGdRSneMpUx6iW-11" value="กำหนดตัวแปร sum&amp;nbsp;" style="rounded=0;whiteSpace=wrap;html=1;" vertex="1" parent="1">
          <mxGeometry x="-560.3400000000001" y="-1020" width="130" height="40" as="geometry" />
        </mxCell>
        <mxCell id="Lyd3PCLGdRSneMpUx6iW-12" value="" style="edgeStyle=orthogonalEdgeStyle;rounded=0;orthogonalLoop=1;jettySize=auto;html=1;" edge="1" parent="1" source="Lyd3PCLGdRSneMpUx6iW-13" target="Lyd3PCLGdRSneMpUx6iW-15">
          <mxGeometry relative="1" as="geometry" />
        </mxCell>
        <mxCell id="Lyd3PCLGdRSneMpUx6iW-13" value="ปริ้นค่า sum&amp;nbsp;" style="shape=parallelogram;perimeter=parallelogramPerimeter;whiteSpace=wrap;html=1;fixedSize=1;" vertex="1" parent="1">
          <mxGeometry x="-580.34" y="-740" width="170" height="40" as="geometry" />
        </mxCell>
        <mxCell id="Lyd3PCLGdRSneMpUx6iW-14" value="" style="edgeStyle=orthogonalEdgeStyle;rounded=0;orthogonalLoop=1;jettySize=auto;html=1;entryX=0.5;entryY=0;entryDx=0;entryDy=0;" edge="1" parent="1" source="Lyd3PCLGdRSneMpUx6iW-15" target="Lyd3PCLGdRSneMpUx6iW-26">
          <mxGeometry relative="1" as="geometry">
            <mxPoint x="-495.63999999999993" y="-599.9840213917694" as="targetPoint" />
          </mxGeometry>
        </mxCell>
        <mxCell id="Lyd3PCLGdRSneMpUx6iW-15" value="sum += cal" style="rounded=0;whiteSpace=wrap;html=1;" vertex="1" parent="1">
          <mxGeometry x="-560.3400000000001" y="-670" width="130" height="40" as="geometry" />
        </mxCell>
        <mxCell id="Lyd3PCLGdRSneMpUx6iW-16" value="" style="edgeStyle=orthogonalEdgeStyle;rounded=0;orthogonalLoop=1;jettySize=auto;html=1;" edge="1" parent="1" source="Lyd3PCLGdRSneMpUx6iW-18" target="Lyd3PCLGdRSneMpUx6iW-20">
          <mxGeometry relative="1" as="geometry" />
        </mxCell>
        <mxCell id="Lyd3PCLGdRSneMpUx6iW-17" style="edgeStyle=orthogonalEdgeStyle;rounded=0;orthogonalLoop=1;jettySize=auto;html=1;entryX=0.5;entryY=0;entryDx=0;entryDy=0;" edge="1" parent="1" source="Lyd3PCLGdRSneMpUx6iW-18" target="Lyd3PCLGdRSneMpUx6iW-27">
          <mxGeometry relative="1" as="geometry">
            <Array as="points">
              <mxPoint x="-320" y="-485" />
              <mxPoint x="-320" y="-110" />
              <mxPoint x="-495" y="-110" />
            </Array>
          </mxGeometry>
        </mxCell>
        <mxCell id="Lyd3PCLGdRSneMpUx6iW-18" value="วนครบรอบแล้วหรือไม่" style="rhombus;whiteSpace=wrap;html=1;" vertex="1" parent="1">
          <mxGeometry x="-572" y="-520" width="153.33" height="70" as="geometry" />
        </mxCell>
        <mxCell id="Lyd3PCLGdRSneMpUx6iW-19" value="" style="edgeStyle=orthogonalEdgeStyle;rounded=0;orthogonalLoop=1;jettySize=auto;html=1;" edge="1" parent="1" source="Lyd3PCLGdRSneMpUx6iW-20" target="Lyd3PCLGdRSneMpUx6iW-24">
          <mxGeometry relative="1" as="geometry" />
        </mxCell>
        <mxCell id="Lyd3PCLGdRSneMpUx6iW-20" value="cal = cal * 10 + 9 ;" style="rounded=0;whiteSpace=wrap;html=1;" vertex="1" parent="1">
          <mxGeometry x="-560.3300000000002" y="-420" width="130" height="40" as="geometry" />
        </mxCell>
        <mxCell id="Lyd3PCLGdRSneMpUx6iW-21" style="edgeStyle=orthogonalEdgeStyle;rounded=0;orthogonalLoop=1;jettySize=auto;html=1;entryX=0;entryY=0.5;entryDx=0;entryDy=0;" edge="1" parent="1" source="Lyd3PCLGdRSneMpUx6iW-22" target="Lyd3PCLGdRSneMpUx6iW-26">
          <mxGeometry relative="1" as="geometry">
            <Array as="points">
              <mxPoint x="-495" y="-170" />
              <mxPoint x="-670" y="-170" />
              <mxPoint x="-670" y="-567" />
            </Array>
          </mxGeometry>
        </mxCell>
        <mxCell id="Lyd3PCLGdRSneMpUx6iW-22" value="sum += cal" style="rounded=0;whiteSpace=wrap;html=1;" vertex="1" parent="1">
          <mxGeometry x="-560.3400000000001" y="-250" width="130" height="40" as="geometry" />
        </mxCell>
        <mxCell id="Lyd3PCLGdRSneMpUx6iW-23" value="" style="edgeStyle=orthogonalEdgeStyle;rounded=0;orthogonalLoop=1;jettySize=auto;html=1;" edge="1" parent="1" source="Lyd3PCLGdRSneMpUx6iW-24" target="Lyd3PCLGdRSneMpUx6iW-22">
          <mxGeometry relative="1" as="geometry" />
        </mxCell>
        <mxCell id="Lyd3PCLGdRSneMpUx6iW-24" value="ปริ้นค่า sum&amp;nbsp;" style="shape=parallelogram;perimeter=parallelogramPerimeter;whiteSpace=wrap;html=1;fixedSize=1;" vertex="1" parent="1">
          <mxGeometry x="-580" y="-340" width="170" height="40" as="geometry" />
        </mxCell>
        <mxCell id="Lyd3PCLGdRSneMpUx6iW-25" value="" style="edgeStyle=orthogonalEdgeStyle;rounded=0;orthogonalLoop=1;jettySize=auto;html=1;" edge="1" parent="1" source="Lyd3PCLGdRSneMpUx6iW-26" target="Lyd3PCLGdRSneMpUx6iW-18">
          <mxGeometry relative="1" as="geometry" />
        </mxCell>
        <mxCell id="Lyd3PCLGdRSneMpUx6iW-26" value="" style="ellipse;whiteSpace=wrap;html=1;aspect=fixed;" vertex="1" parent="1">
          <mxGeometry x="-507.84" y="-580" width="25" height="25" as="geometry" />
        </mxCell>
        <mxCell id="Lyd3PCLGdRSneMpUx6iW-27" value="&lt;font data-font-src=&quot;https://fonts.googleapis.com/css?family=Sarabun&quot; face=&quot;Sarabun&quot;&gt;Start&lt;/font&gt;" style="ellipse;whiteSpace=wrap;html=1;" vertex="1" parent="1">
          <mxGeometry x="-560.0000000000001" y="-60" width="130" height="30" as="geometry" />
        </mxCell>
        <mxCell id="Lyd3PCLGdRSneMpUx6iW-28" value="T" style="text;html=1;align=center;verticalAlign=middle;resizable=0;points=[];autosize=1;strokeColor=none;fillColor=none;" vertex="1" parent="1">
          <mxGeometry x="-425" y="-520" width="30" height="30" as="geometry" />
        </mxCell>
        <mxCell id="Lyd3PCLGdRSneMpUx6iW-29" value="F" style="text;html=1;align=center;verticalAlign=middle;resizable=0;points=[];autosize=1;strokeColor=none;fillColor=none;" vertex="1" parent="1">
          <mxGeometry x="-490.00000000000006" y="-460" width="30" height="30" as="geometry" />
        </mxCell>
      </root>
    </mxGraphModel>
  </diagram>
</mxfile>
